<svg width="1024" height="1024" xmlns="http://www.w3.org/2000/svg" xmlns:svg="http://www.w3.org/2000/svg" class="icon">
 <defs>
  <style type="text/css"/>
 </defs>
 <g>
  <title>Layer 1</title>
  <path stroke="#000000" stroke-width="0" stroke-opacity="0" fill="#b2b2b2" id="svg_1" d="m946.09585,231.24964l-224.12735,-224.11168l-60.44209,60.44811l121.67464,121.66741l-648.11484,0l0,323.34588l85.49012,0l0,-237.85575l562.62472,0l-121.67464,121.66741l60.44209,60.44811l224.12735,-224.10445l-0.7483,-0.75553l0.7483,-0.7495zm-126.56809,516.29783l-546.56105,0l121.66741,-121.66018l-60.44811,-60.46257l-224.12735,224.11168l0.7483,0.7483l-0.7483,0.7483l224.12735,224.12012l60.44811,-60.45534l-121.66741,-121.66018l632.04997,0l0,-320.04783l-85.49012,0l0,234.55771l0.0012,0z"/>
  <path fill="#b2b2b2" stroke-width="0" stroke="#000000" stroke-opacity="0" id="svg_2" d="m488.826,396.209l70.947,0l0,241.298l-70.947,0l0,-241.298z"/>
 </g>
</svg>