<svg width="1024" height="1024" xmlns="http://www.w3.org/2000/svg" xmlns:svg="http://www.w3.org/2000/svg" class="icon">
 <defs>
  <style type="text/css"/>
 </defs>
 <g>
  <title>Layer 1</title>
  <path id="svg_1" fill="#b2b2b2" d="m216.064,357.376c-57.58494,0 -93.36471,30.11765 -93.36471,78.66729l0,130.16848c0,24.99764 9.69789,48.42917 27.28659,66.13835c17.58871,17.64894 41.08047,27.40706 66.07812,27.40706l104.99012,0l342.49788,342.61835l0,-989.60565l-339.12471,344.60612l-108.36329,0zm387.25271,-197.51153l0,697.04282l-257.32518,-257.38541l-129.98777,0c-18.25129,0 -33.06917,-14.93835 -33.06917,-33.31011l0,-130.16848c0,-5.48141 0,-18.432 33.12941,-18.432l133.54165,0l253.71106,-257.74682zm119.808,501.94071l0,-60.2353c33.49082,0 0,0 0,0"/>
 </g>
</svg>