<?xml version="1.0" standalone="no"?><!DOCTYPE svg PUBLIC "-//W3C//DTD SVG 1.1//EN" "http://www.w3.org/Graphics/SVG/1.1/DTD/svg11.dtd"><svg t="1531751259849" class="icon" style="" viewBox="0 0 1024 1024" version="1.1" xmlns="http://www.w3.org/2000/svg" p-id="2051" xmlns:xlink="http://www.w3.org/1999/xlink" width="100" height="100"><defs><style type="text/css"></style></defs><path d="M256 742.4h512V409.6h-230.4c-25.6 0-56.32-10.24-76.8-25.6l-61.44-46.08c-2.56-2.56-12.8-5.12-15.36-5.12h-128v409.6zM204.8 332.8c0-28.16 23.04-51.2 51.2-51.2h128c15.36 0 35.84 7.68 46.08 15.36l61.44 46.08c10.24 7.68 33.28 15.36 46.08 15.36h230.4c28.16 0 51.2 23.04 51.2 51.2v332.8c0 28.16-23.04 51.2-51.2 51.2H256c-28.16 0-51.2-23.04-51.2-51.2V332.8z" fill="#666666" p-id="2052"></path><path d="M563.2 512h-102.4v140.8c0 20.48-23.04 38.4-51.2 38.4s-51.2-17.92-51.2-38.4 23.04-38.4 51.2-38.4v-128c0-12.8 12.8-25.6 25.6-25.6h153.6c15.36 0 25.6 10.24 25.6 25.6v166.4c0 20.48-23.04 38.4-51.2 38.4s-51.2-17.92-51.2-38.4 23.04-38.4 51.2-38.4v-102.4z" fill="#666666" p-id="2053"></path></svg>