<?xml version="1.0" standalone="no"?><!DOCTYPE svg PUBLIC "-//W3C//DTD SVG 1.1//EN" "http://www.w3.org/Graphics/SVG/1.1/DTD/svg11.dtd"><svg t="1531321993568" class="icon" style="" viewBox="0 0 1024 1024" version="1.1" xmlns="http://www.w3.org/2000/svg" p-id="1314" xmlns:xlink="http://www.w3.org/1999/xlink" width="100" height="100"><defs><style type="text/css"></style></defs><path d="M947.2 919.04l-53.76-222.72c-2.56-15.36-23.04-20.48-35.84-7.68l-58.88 58.88L151.04 94.72c-15.36-15.36-40.96-15.36-56.32 0-15.36 15.36-15.36 38.4 0 53.76l652.8 652.8-56.32 56.32c-12.8 12.8-7.68 30.72 7.68 35.84L921.6 947.2c15.36 2.56 28.16-12.8 25.6-28.16z" fill="#b2b2b2" p-id="1315"></path><path d="M601.6 476.16l186.88-194.56 66.56 56.32c12.8 10.24 33.28 5.12 35.84-10.24l43.52-220.16c2.56-15.36-12.8-28.16-28.16-25.6l-222.72 61.44c-15.36 5.12-20.48 23.04-7.68 35.84l53.76 51.2-184.32 194.56 56.32 51.2zM107.52 880.64c-15.36 15.36-12.8 40.96 2.56 53.76 7.68 7.68 17.92 10.24 28.16 10.24 10.24 0 20.48-5.12 25.6-12.8l309.76-325.12-56.32-51.2L107.52 880.64z" fill="#b2b2b2" p-id="1316"></path></svg>