<svg viewBox="0 0 1024 1024" version="1.1" xmlns="http://www.w3.org/2000/svg" p-id="2051" xmlns:xlink="http://www.w3.org/1999/xlink" width="100" height="100" class="icon">
 <defs>
  <style type="text/css"/>
 </defs>
 <g>
  <title>Layer 1</title>
  <polygon stroke="#00a1ec" fill-opacity="0" stroke-width="40" points="858.9007616043091,568.888979434967 294.30267810821533,912.7044701576233 294.30267810821533,225.07327508926392 858.9007616043091,568.888979434967 " strokeWidth="10" strokecolor="#00a1ec" fill="#000000" edge="257.80401" orient="x" sides="3" shape="regularPoly" id="svg_4" cy="282.33745" cx="276.01646"/>
  <path id="svg_2" fill="#00a1ec" d="m563.2,512l-102.4,0l0,140.8c0,20.48 -23.04,38.4 -51.2,38.4s-51.2,-17.92 -51.2,-38.4s23.04,-38.4 51.2,-38.4l0,-128c0,-12.8 12.8,-25.6 25.6,-25.6l153.6,0c15.36,0 25.6,10.24 25.6,25.6l0,166.4c0,20.48 -23.04,38.4 -51.2,38.4s-51.2,-17.92 -51.2,-38.4s23.04,-38.4 51.2,-38.4l0,-102.4z"/>
 </g>
</svg>