<?xml version="1.0" standalone="no"?><!DOCTYPE svg PUBLIC "-//W3C//DTD SVG 1.1//EN" "http://www.w3.org/Graphics/SVG/1.1/DTD/svg11.dtd"><svg t="1531214179103" class="icon" style="" viewBox="0 0 1024 1024" version="1.1" xmlns="http://www.w3.org/2000/svg" p-id="1310" xmlns:xlink="http://www.w3.org/1999/xlink" width="100" height="100"><defs><style type="text/css"></style></defs><path d="M216.064 357.376c-57.584941 0-93.364706 30.117647-93.364706 78.667294l0 130.168471c0 24.997647 9.697882 48.429176 27.286588 66.138353 17.588706 17.648941 41.080471 27.407059 66.078118 27.407059l104.990118 0 342.497882 342.618353 0-989.605647-339.124706 344.606118-108.363294 0zM603.316706 159.864471l0 697.042824-257.325176-257.385412-129.987765 0c-18.251294 0-33.069176-14.938353-33.069176-33.310118l0-130.168471c0-5.481412 0-18.432 33.129412-18.432l133.541647 0 253.711059-257.746824zM723.124706 661.805176l0-60.235294c33.490824 0 60.717176-27.226353 60.717176-60.717176s-27.226353-60.717176-60.717176-60.717176l0-60.235294c66.680471 0 120.952471 54.272 120.952471 120.952471s-54.272 120.952471-120.952471 120.952471zM965.511529 541.334588c0 132.879059-108.062118 240.941176-240.941176 240.941176l0-60.235294c99.629176 0 180.705882-81.076706 180.705882-180.705882s-81.076706-180.705882-180.705882-180.705882l0-60.235294c132.818824 0 240.941176 108.122353 240.941176 240.941176z" p-id="1311" fill="#b2b2b2"></path></svg>